# xmcd
#
# Track frame offsets: 
#        150
#        13970
#        32967
#        53937
#        68770
#        81512
#        95532
#        106685
#        120620
#        136717
#
# Disc length: 2005 seconds
#
# Revision: 2
# Processed by: cddbd v1.5.2PL0 Copyright (c) Steve Scherf et al.
# Submitted via: ExactAudioCopyFreeDBPlugin 1.0
#
DISCID=8307d30a
DTITLE=Bossa Vivace - Bossa Vivace Selection I
DYEAR=2004
DGENRE=Bossa Nova
TTITLE0=Phonogenic - There's A Kind Of Hush
TTITLE1=Farfesta - Smooth Operator
TTITLE2=Claudio B. - Pra Machucar Meu Coracao
TTITLE3=Sophie and Ritmo 63 - Agua De Beber
TTITLE4=Brazilian Mode - I'm In The Mood For Dancing
TTITLE5=Claudio B. - Fascinating Rhythm
TTITLE6=Sophie and Ritmo 63 - My Little Boat
TTITLE7=Ciel Clair - Batucada
TTITLE8=Farfesta - Brazil
TTITLE9=Phonogenic - The Continental
EXTD=Powerd by gracenote music web API
EXTT0=
EXTT1=
EXTT2=
EXTT3=
EXTT4=
EXTT5=
EXTT6=
EXTT7=
EXTT8=
EXTT9=
PLAYORDER=
